<?xml version="1.0" encoding="UTF-8"?>
<!DOCTYPE svg PUBLIC "-//W3C//DTD SVG 1.1//EN" "http://www.w3.org/Graphics/SVG/1.1/DTD/svg11.dtd">
<svg xmlns="http://www.w3.org/2000/svg" version="1.1" width="246px" height="512px" style="shape-rendering:geometricPrecision; text-rendering:geometricPrecision; image-rendering:optimizeQuality; fill-rule:evenodd; clip-rule:evenodd" xmlns:xlink="http://www.w3.org/1999/xlink">
<g><path style="opacity:0.987" fill="#2b2626" d="M 98.5,-0.5 C 105.5,-0.5 112.5,-0.5 119.5,-0.5C 144.731,5.56399 160.564,21.2307 167,46.5C 168.313,135.81 168.979,225.144 169,314.5C 199.628,336.245 215.461,366.078 216.5,404C 213.937,452.205 190.604,485.871 146.5,505C 138.541,507.821 130.541,509.987 122.5,511.5C 112.833,511.5 103.167,511.5 93.5,511.5C 36.8304,499.165 5.49707,464.165 -0.5,406.5C -0.5,404.833 -0.5,403.167 -0.5,401.5C 1.78517,364.256 18.1185,334.923 48.5,313.5C 49.0179,224.476 49.8513,135.476 51,46.5C 57.4355,21.2307 73.2688,5.56399 98.5,-0.5 Z M 105.5,19.5 C 125.985,19.4862 139.485,29.1529 146,48.5C 147.321,142.798 147.988,237.131 148,331.5C 179.503,350.506 193.503,378.506 190,415.5C 182.579,452.254 160.746,475.421 124.5,485C 79.6561,490.447 48.1561,472.614 30,431.5C 18.0872,387.68 31.4206,354.014 70,330.5C 70.3333,238.167 70.6667,145.833 71,53.5C 75.1336,34.532 86.6336,23.1986 105.5,19.5 Z"/></g>
<g><path style="opacity:0.982" fill="#ee1c24" d="M 105.5,52.5 C 115.016,51.8878 121.516,55.8878 125,64.5C 125.333,157.833 125.667,251.167 126,344.5C 157.319,356.787 171.652,379.787 169,413.5C 161.475,445.774 141.141,463.108 108,465.5C 81.2677,464.309 62.2677,451.642 51,427.5C 41.2634,398.27 48.0968,373.77 71.5,354C 77.1814,349.909 83.3481,346.743 90,344.5C 90.3333,251.5 90.6667,158.5 91,65.5C 92.9149,57.7445 97.7483,53.4112 105.5,52.5 Z"/></g>
<g><path style="opacity:0.979" fill="#2b2626" d="M 245.5,84.5 C 245.5,84.8333 245.5,85.1667 245.5,85.5C 244.961,89.7137 242.628,92.5471 238.5,94C 221.837,94.4999 205.17,94.6666 188.5,94.5C 188.5,88.1667 188.5,81.8333 188.5,75.5C 205.17,75.3334 221.837,75.5001 238.5,76C 242.216,77.8659 244.55,80.6992 245.5,84.5 Z"/></g>
<g><path style="opacity:0.989" fill="#2b2626" d="M 245.5,133.5 C 245.5,134.167 245.5,134.833 245.5,135.5C 244.59,138.793 242.59,141.293 239.5,143C 222.503,143.5 205.503,143.667 188.5,143.5C 188.5,137.167 188.5,130.833 188.5,124.5C 204.837,124.333 221.17,124.5 237.5,125C 241.791,126.453 244.458,129.287 245.5,133.5 Z"/></g>
<g><path style="opacity:0.996" fill="#2d2626" d="M 245.5,182.5 C 245.5,183.167 245.5,183.833 245.5,184.5C 244.59,187.793 242.59,190.293 239.5,192C 222.503,192.5 205.503,192.667 188.5,192.5C 188.19,186.242 188.524,180.076 189.5,174C 204.833,173.333 220.167,173.333 235.5,174C 240.89,174.565 244.223,177.398 245.5,182.5 Z"/></g>
<g><path style="opacity:0.99" fill="#2b2626" d="M 245.5,231.5 C 245.5,232.167 245.5,232.833 245.5,233.5C 244.458,237.713 241.791,240.547 237.5,242C 221.17,242.5 204.837,242.667 188.5,242.5C 188.5,236.167 188.5,229.833 188.5,223.5C 205.503,223.333 222.503,223.5 239.5,224C 242.59,225.707 244.59,228.207 245.5,231.5 Z"/></g>
<g><path style="opacity:0.98" fill="#2b2626" d="M 245.5,281.5 C 245.5,281.833 245.5,282.167 245.5,282.5C 244.458,286.713 241.791,289.547 237.5,291C 221.17,291.5 204.837,291.667 188.5,291.5C 188.5,285.167 188.5,278.833 188.5,272.5C 205.503,272.333 222.503,272.5 239.5,273C 242.878,274.943 244.878,277.776 245.5,281.5 Z"/></g>
</svg>
