<?xml version="1.0" encoding="UTF-8"?>
<!DOCTYPE svg PUBLIC "-//W3C//DTD SVG 1.1//EN" "http://www.w3.org/Graphics/SVG/1.1/DTD/svg11.dtd">
<svg xmlns="http://www.w3.org/2000/svg" version="1.1" width="36px" height="36px" style="shape-rendering:geometricPrecision; text-rendering:geometricPrecision; image-rendering:optimizeQuality; fill-rule:evenodd; clip-rule:evenodd" xmlns:xlink="http://www.w3.org/1999/xlink">
<g><path style="opacity:0.708" fill="#183172" d="M 24.5,7.5 C 26.7474,12.4596 26.9141,17.4596 25,22.5C 21.5413,26.502 17.7079,27.1687 13.5,24.5C 11.2475,24.0844 9.74753,22.751 9,20.5C 8.00197,15.6434 8.8353,11.1434 11.5,7C 11.2716,6.60123 10.9382,6.43456 10.5,6.5C 12.1616,3.81853 14.495,1.81853 17.5,0.5C 21.2091,2.19838 23.5424,4.53171 24.5,7.5 Z"/></g>
<g><path style="opacity:1" fill="#b1c7f3" d="M 24.5,11.5 C 21.5,11.5 18.5,11.5 15.5,11.5C 14.1667,11.5 12.8333,11.5 11.5,11.5C 12.2351,7.70696 14.2351,4.70696 17.5,2.5C 20.5558,4.94852 22.8892,7.94852 24.5,11.5 Z"/></g>
<g><path style="opacity:0.103" fill="#161617" d="M 10.5,6.5 C 10.9382,6.43456 11.2716,6.60123 11.5,7C 8.8353,11.1434 8.00197,15.6434 9,20.5C 9.74753,22.751 11.2475,24.0844 13.5,24.5C 17.7079,27.1687 21.5413,26.502 25,22.5C 26.9141,17.4596 26.7474,12.4596 24.5,7.5C 29.178,12.5228 30.678,18.5228 29,25.5C 24.402,33.584 17.902,35.4174 9.5,31C 7.95118,29.786 6.78451,28.286 6,26.5C 4.43735,18.9891 5.93735,12.3224 10.5,6.5 Z"/></g>
<g><path style="opacity:1" fill="#0e59e4" d="M 15.5,11.5 C 18.5,11.5 21.5,11.5 24.5,11.5C 26.9621,21.0371 23.2954,25.3704 13.5,24.5C 9.78208,21.3472 8.78208,17.5139 10.5,13C 12.3817,12.8019 14.0484,12.3019 15.5,11.5 Z"/></g>
<g><path style="opacity:1" fill="#0742af" d="M 19.5,14.5 C 20.6448,15.7927 20.3115,16.9593 18.5,18C 21.7423,18.2833 22.0756,19.1166 19.5,20.5C 20.0253,21.1924 20.6919,21.6924 21.5,22C 19.1091,21.6094 16.7757,21.6094 14.5,22C 16.3009,19.5574 17.9676,17.0574 19.5,14.5 Z"/></g>
</svg>
