<?xml version="1.0" encoding="UTF-8"?>
<!DOCTYPE svg PUBLIC "-//W3C//DTD SVG 1.1//EN" "http://www.w3.org/Graphics/SVG/1.1/DTD/svg11.dtd">
<svg xmlns="http://www.w3.org/2000/svg" version="1.1" width="21px" height="16px" style="shape-rendering:geometricPrecision; text-rendering:geometricPrecision; image-rendering:optimizeQuality; fill-rule:evenodd; clip-rule:evenodd" xmlns:xlink="http://www.w3.org/1999/xlink">
<g><path style="opacity:0.742" fill="#000" d="M 5.5,-0.5 C 6.16667,-0.5 6.83333,-0.5 7.5,-0.5C 8.37391,2.23096 7.37391,4.39763 4.5,6C 9.82294,6.49935 15.1563,6.66602 20.5,6.5C 20.5,7.16667 20.5,7.83333 20.5,8.5C 15.1563,8.33398 9.82294,8.50065 4.5,9C 7.37391,10.6024 8.37391,12.769 7.5,15.5C 6.83333,15.5 6.16667,15.5 5.5,15.5C 3.83333,13.1667 1.83333,11.1667 -0.5,9.5C -0.5,8.16667 -0.5,6.83333 -0.5,5.5C 1.83333,3.83333 3.83333,1.83333 5.5,-0.5 Z"/></g>
</svg>
