<svg xmlns="http://www.w3.org/2000/svg" xmlns:xlink="http://www.w3.org/1999/xlink" version="1.1" width="256" height="256" viewBox="0 0 256 256" xml:space="preserve">

<defs>
</defs>
<g style="stroke: none; stroke-width: 0; stroke-dasharray: none; stroke-linecap: butt; stroke-linejoin: miter; stroke-miterlimit: 10; fill: none; fill-rule: nonzero; opacity: 1;" transform="translate(1.4065934065934016 1.4065934065934016) scale(2.81 2.81)" >
	<path d="M 77.471 21.915 C 76.304 10.956 66.995 2.502 55.885 2.502 c -6.262 0 -12.146 2.663 -16.279 7.335 c -2.525 -1.409 -5.355 -2.15 -8.238 -2.15 c -6.349 0 -12.035 3.45 -14.987 9.046 h -0.651 C 7.056 16.733 0 23.79 0 32.463 s 7.056 15.729 15.729 15.729 h 61.125 C 84.103 48.192 90 42.295 90 35.046 C 90 28.004 84.435 22.237 77.471 21.915 z" style="stroke: black; stroke-width: 4; stroke-dasharray: none; stroke-linecap: butt; stroke-linejoin: miter; stroke-miterlimit: 10; fill: #fff; fill-rule: nonzero; opacity: 1;" transform=" matrix(1 0 0 1 0 0) " stroke-linecap="round" />
	<path d="M 45 67.942 c -2.714 0 -4.922 -2.208 -4.922 -4.922 c 0 -3.455 2.771 -6.65 4.605 -8.764 l 0.2 -0.231 c 0.059 -0.068 0.176 -0.068 0.235 0 l 0.2 0.231 c 1.834 2.114 4.605 5.308 4.605 8.764 C 49.922 65.734 47.714 67.942 45 67.942 z" style="stroke: none; stroke-width: 1; stroke-dasharray: none; stroke-linecap: butt; stroke-linejoin: miter; stroke-miterlimit: 10; fill: blue; fill-rule: nonzero; opacity: 1;" transform=" matrix(1 0 0 1 0 0) " stroke-linecap="round" />
	<path d="M 74.333 67.942 c -2.714 0 -4.922 -2.208 -4.922 -4.922 c 0 -3.455 2.771 -6.65 4.605 -8.764 l 0.2 -0.231 c 0.059 -0.068 0.176 -0.068 0.235 0 l 0.2 0.231 c 1.834 2.114 4.605 5.308 4.605 8.764 C 79.256 65.734 77.047 67.942 74.333 67.942 z" style="stroke: none; stroke-width: 1; stroke-dasharray: none; stroke-linecap: butt; stroke-linejoin: miter; stroke-miterlimit: 10; fill: blue; fill-rule: nonzero; opacity: 1;" transform=" matrix(1 0 0 1 0 0) " stroke-linecap="round" />
	<path d="M 15.667 67.942 c -2.714 0 -4.922 -2.208 -4.922 -4.922 c 0 -3.455 2.771 -6.65 4.605 -8.764 l 0.2 -0.231 c 0.059 -0.068 0.176 -0.068 0.235 0 l 0.2 0.231 c 1.834 2.114 4.605 5.308 4.605 8.764 C 20.589 65.734 18.381 67.942 15.667 67.942 z" style="stroke: none; stroke-width: 1; stroke-dasharray: none; stroke-linecap: butt; stroke-linejoin: miter; stroke-miterlimit: 10; fill: blue; fill-rule: nonzero; opacity: 1;" transform=" matrix(1 0 0 1 0 0) " stroke-linecap="round" />
	<path d="M 30.333 87.498 c -2.714 0 -4.922 -2.208 -4.922 -4.922 c 0 -3.455 2.771 -6.65 4.605 -8.764 l 0.2 -0.231 c 0.059 -0.068 0.176 -0.068 0.235 0 l 0.2 0.231 c 1.834 2.114 4.605 5.308 4.605 8.764 C 35.256 85.29 33.047 87.498 30.333 87.498 z" style="stroke: none; stroke-width: 1; stroke-dasharray: none; stroke-linecap: butt; stroke-linejoin: miter; stroke-miterlimit: 10; fill: blue; fill-rule: nonzero; opacity: 1;" transform=" matrix(1 0 0 1 0 0) " stroke-linecap="round" />
	<path d="M 59.667 87.498 c -2.714 0 -4.922 -2.208 -4.922 -4.922 c 0 -3.455 2.771 -6.65 4.605 -8.764 l 0.2 -0.231 c 0.059 -0.068 0.176 -0.068 0.235 0 l 0.2 0.231 c 1.834 2.114 4.605 5.308 4.605 8.764 C 64.589 85.29 62.381 87.498 59.667 87.498 z" style="stroke: none; stroke-width: 1; stroke-dasharray: none; stroke-linecap: butt; stroke-linejoin: miter; stroke-miterlimit: 10; fill: blue; fill-rule: nonzero; opacity: 1;" transform=" matrix(1 0 0 1 0 0) " stroke-linecap="round" />
</g>
</svg>