<?xml version="1.0" encoding="UTF-8"?>
<!DOCTYPE svg PUBLIC "-//W3C//DTD SVG 1.1//EN" "http://www.w3.org/Graphics/SVG/1.1/DTD/svg11.dtd">
<svg xmlns="http://www.w3.org/2000/svg" version="1.1" width="246px" height="512px" style="shape-rendering:geometricPrecision; text-rendering:geometricPrecision; image-rendering:optimizeQuality; fill-rule:evenodd; clip-rule:evenodd" xmlns:xlink="http://www.w3.org/1999/xlink">
<g><path style="opacity:0.987" fill="#2a2727" d="M 98.5,-0.5 C 105.5,-0.5 112.5,-0.5 119.5,-0.5C 144.731,5.56399 160.564,21.2307 167,46.5C 168.313,135.81 168.979,225.144 169,314.5C 199.627,336.243 215.46,366.076 216.5,404C 213.919,452.192 190.586,485.859 146.5,505C 138.541,507.821 130.541,509.987 122.5,511.5C 112.833,511.5 103.167,511.5 93.5,511.5C 36.8304,499.165 5.49707,464.165 -0.5,406.5C -0.5,405.167 -0.5,403.833 -0.5,402.5C 1.47209,364.886 17.8054,335.22 48.5,313.5C 49.0206,224.479 49.8539,135.479 51,46.5C 57.4355,21.2307 73.2688,5.56399 98.5,-0.5 Z M 105.5,19.5 C 125.985,19.4862 139.485,29.1529 146,48.5C 147.155,142.8 147.988,237.133 148.5,331.5C 181.763,352.374 195.263,382.374 189,421.5C 177.249,462.205 150.249,483.871 108,486.5C 65.1678,483.919 38.1678,461.919 27,420.5C 21.534,381.103 35.7007,351.103 69.5,330.5C 70.3333,237.835 70.8333,145.168 71,52.5C 75.582,34.0811 87.082,23.0811 105.5,19.5 Z"/></g>
<g><path style="opacity:0.977" fill="#2a2627" d="M 245.5,84.5 C 245.5,84.8333 245.5,85.1667 245.5,85.5C 244.961,89.7137 242.628,92.5471 238.5,94C 221.837,94.4999 205.17,94.6666 188.5,94.5C 188.5,88.1667 188.5,81.8333 188.5,75.5C 205.17,75.3334 221.837,75.5001 238.5,76C 242.216,77.8659 244.55,80.6992 245.5,84.5 Z"/></g>
<g><path style="opacity:0.989" fill="#2a2627" d="M 245.5,133.5 C 245.5,133.833 245.5,134.167 245.5,134.5C 244.878,138.224 242.878,141.057 239.5,143C 222.503,143.5 205.503,143.667 188.5,143.5C 188.5,137.167 188.5,130.833 188.5,124.5C 204.837,124.333 221.17,124.5 237.5,125C 241.791,126.453 244.458,129.287 245.5,133.5 Z"/></g>
<g><path style="opacity:0.996" fill="#2a2627" d="M 245.5,182.5 C 245.5,182.833 245.5,183.167 245.5,183.5C 244.878,187.224 242.878,190.057 239.5,192C 222.503,192.5 205.503,192.667 188.5,192.5C 188.5,186.5 188.5,180.5 188.5,174.5C 205.503,174.333 222.503,174.5 239.5,175C 242.59,176.707 244.59,179.207 245.5,182.5 Z"/></g>
<g><path style="opacity:0.99" fill="#2a2627" d="M 245.5,232.5 C 245.5,232.833 245.5,233.167 245.5,233.5C 244.311,238.188 241.311,241.021 236.5,242C 220.503,242.5 204.503,242.667 188.5,242.5C 188.5,236.167 188.5,229.833 188.5,223.5C 205.503,223.333 222.503,223.5 239.5,224C 242.878,225.943 244.878,228.776 245.5,232.5 Z"/></g>
<g><path style="opacity:0.981" fill="#2a2627" d="M 245.5,281.5 C 245.5,281.833 245.5,282.167 245.5,282.5C 244.458,286.713 241.791,289.547 237.5,291C 221.17,291.5 204.837,291.667 188.5,291.5C 188.5,285.167 188.5,278.833 188.5,272.5C 205.503,272.333 222.503,272.5 239.5,273C 242.878,274.943 244.878,277.776 245.5,281.5 Z"/></g>
<g><path style="opacity:0.989" fill="#0090d3" d="M 90.5,305.5 C 102.167,305.5 113.833,305.5 125.5,305.5C 125.333,318.504 125.5,331.504 126,344.5C 162.513,359.86 175.846,386.86 166,425.5C 150.706,457.564 125.539,470.064 90.5,463C 57.1616,450.166 42.9949,425.999 48,390.5C 53.6545,367.514 67.6545,352.18 90,344.5C 90.4999,331.504 90.6666,318.504 90.5,305.5 Z"/></g>
</svg>
