<?xml version="1.0" encoding="UTF-8"?>
<!DOCTYPE svg PUBLIC "-//W3C//DTD SVG 1.1//EN" "http://www.w3.org/Graphics/SVG/1.1/DTD/svg11.dtd">
<svg xmlns="http://www.w3.org/2000/svg" version="1.1" width="32px" height="32px" style="shape-rendering:geometricPrecision; text-rendering:geometricPrecision; image-rendering:optimizeQuality; fill-rule:evenodd; clip-rule:evenodd" xmlns:xlink="http://www.w3.org/1999/xlink">
<g><path style="opacity:0.784" fill="#3d74b0" d="M 13.5,4.5 C 18.4928,4.99704 19.4928,7.16371 16.5,11C 17.8023,14.7957 19.1357,18.629 20.5,22.5C 18.9973,26.1619 16.4973,27.1619 13,25.5C 12.9632,21.9111 12.1299,18.5778 10.5,15.5C 11.5,14.1667 12.5,12.8333 13.5,11.5C 10.8521,9.13164 10.8521,6.79831 13.5,4.5 Z"/></g>
<g><path style="opacity:0.553" fill="#3d75b1" d="M 9.5,-0.5 C 13.5,-0.5 17.5,-0.5 21.5,-0.5C 25.8333,1.83333 29.1667,5.16667 31.5,9.5C 31.5,13.5 31.5,17.5 31.5,21.5C 30.31,23.8693 28.6433,25.8693 26.5,27.5C 26.6068,25.6214 26.1068,25.2881 25,26.5C 24.2828,25.9558 23.7828,25.2891 23.5,24.5C 28.8164,18.4469 28.8164,12.2802 23.5,6C 19.3631,3.44083 15.0297,2.94083 10.5,4.5C 10.5,3.83333 10.5,3.16667 10.5,2.5C 10.5,1.83333 10.1667,1.5 9.5,1.5C 9.5,1.16667 9.5,0.833333 9.5,0.5C 9.5,0.166667 9.5,-0.166667 9.5,-0.5 Z"/></g>
<g><path style="opacity:0.546" fill="#3d74b1" d="M 9.5,0.5 C 9.5,0.833333 9.5,1.16667 9.5,1.5C 10.1667,1.5 10.5,1.83333 10.5,2.5C 10.5,3.16667 10.5,3.83333 10.5,4.5C 2.43714,10.1506 1.43714,16.9839 7.5,25C 13.025,28.4702 18.3583,28.3036 23.5,24.5C 23.7828,25.2891 24.2828,25.9558 25,26.5C 26.1068,25.2881 26.6068,25.6214 26.5,27.5C 25.0158,29.0737 23.3492,30.407 21.5,31.5C 17.5,31.5 13.5,31.5 9.5,31.5C 5.16667,29.1667 1.83333,25.8333 -0.5,21.5C -0.5,17.5 -0.5,13.5 -0.5,9.5C 1.55615,5.11192 4.88948,2.11192 9.5,0.5 Z"/></g>
</svg>
