<svg xmlns="http://www.w3.org/2000/svg" xmlns:xlink="http://www.w3.org/1999/xlink" version="1.1" width="256" height="256" stroke="red" viewBox="0 0 256 256" xml:space="preserve">

<defs>
</defs>
<g style="stroke: blue; stroke-width: 0; stroke-dasharray: none; stroke-linecap: butt; stroke-linejoin: miter; stroke-miterlimit: 10; fill: blue; fill-rule: nonzero; opacity: 1;" transform="translate(1.4065934065934016 1.4065934065934016) scale(2.81 2.81)" >
	<path d="M 76.854 47.692 H 15.729 C 7.056 47.692 0 40.636 0 31.963 s 7.056 -15.729 15.729 -15.729 h 0.651 c 2.953 -5.597 8.638 -9.046 14.987 -9.046 c 2.883 0 5.713 0.741 8.238 2.15 c 4.132 -4.672 10.017 -7.335 16.279 -7.335 c 11.11 0 20.419 8.454 21.586 19.413 C 84.435 21.737 90 27.504 90 34.546 C 90 41.795 84.103 47.692 76.854 47.692 z M 15.729 18.233 C 8.159 18.233 2 24.393 2 31.963 s 6.159 13.729 13.729 13.729 h 61.125 C 83 45.692 88 40.692 88 34.546 S 83 23.4 76.854 23.4 h -1.242 l -0.06 -0.936 C 74.892 12.111 66.252 4.002 55.885 4.002 c -5.947 0 -11.519 2.645 -15.288 7.257 l -0.558 0.683 l -0.747 -0.468 c -2.389 -1.496 -5.129 -2.287 -7.924 -2.287 c -5.786 0 -10.948 3.25 -13.471 8.481 l -0.273 0.565 H 15.729 z" style="stroke: none; stroke-width: 1; stroke-dasharray: none; stroke-linecap: butt; stroke-linejoin: miter; stroke-miterlimit: 10; fill: rgb(0,0,0); fill-rule: nonzero; opacity: 1;" transform=" matrix(1 0 0 1 0 0) " stroke-linecap="round" />
	<path d="M 45 68.442 c -3.266 0 -5.922 -2.656 -5.922 -5.922 c 0 -3.829 2.918 -7.193 4.85 -9.42 l 0.201 -0.231 c 0.428 -0.498 1.312 -0.504 1.749 0.006 l 0.196 0.225 c 1.932 2.228 4.85 5.591 4.85 9.421 C 50.922 65.786 48.266 68.442 45 68.442 z M 45 54.918 c -1.707 1.985 -3.922 4.77 -3.922 7.603 c 0 2.162 1.76 3.922 3.922 3.922 c 2.162 0 3.922 -1.76 3.922 -3.922 C 48.922 59.688 46.706 56.903 45 54.918 z M 44.362 54.182 c 0.002 0.002 0.005 0.005 0.007 0.008 L 44.362 54.182 z M 45.642 54.176 l -0.007 0.009 C 45.637 54.182 45.64 54.179 45.642 54.176 z" style="stroke: none; stroke-width: 1; stroke-dasharray: none; stroke-linecap: butt; stroke-linejoin: miter; stroke-miterlimit: 10; fill: blue; fill-rule: nonzero; opacity: 1;" transform=" matrix(1 0 0 1 0 0) " stroke-linecap="round" />
	<path d="M 74.333 68.442 c -3.266 0 -5.922 -2.656 -5.922 -5.922 c 0 -3.83 2.918 -7.193 4.849 -9.42 l 0.201 -0.231 c 0.213 -0.248 0.53 -0.394 0.867 -0.395 c 0.002 0 0.004 -0.001 0.005 -0.001 c 0.336 0 0.653 0.144 0.872 0.395 l 0.202 0.233 c 1.931 2.227 4.849 5.59 4.849 9.419 C 80.256 65.786 77.599 68.442 74.333 68.442 z M 74.333 54.918 c -1.706 1.985 -3.922 4.77 -3.922 7.603 c 0 2.162 1.76 3.922 3.922 3.922 c 2.163 0 3.923 -1.76 3.923 -3.922 C 78.256 59.688 76.04 56.903 74.333 54.918 z M 74.975 54.176 l -0.007 0.009 C 74.97 54.182 74.973 54.179 74.975 54.176 z" style="stroke: none; stroke-width: 1; stroke-dasharray: none; stroke-linecap: butt; stroke-linejoin: miter; stroke-miterlimit: 10; fill: blue; fill-rule: nonzero; opacity: 1;" transform=" matrix(1 0 0 1 0 0) " stroke-linecap="round" />
	<path d="M 15.667 68.442 c -3.266 0 -5.922 -2.656 -5.922 -5.922 c 0 -3.829 2.918 -7.193 4.85 -9.42 l 0.201 -0.231 c 0.434 -0.5 1.31 -0.502 1.746 0.002 l 0.199 0.229 c 1.933 2.229 4.85 5.593 4.85 9.421 C 21.589 65.786 18.932 68.442 15.667 68.442 z M 15.667 54.918 c -1.706 1.985 -3.922 4.77 -3.922 7.603 c 0 2.162 1.76 3.922 3.922 3.922 s 3.922 -1.76 3.922 -3.922 C 19.589 59.688 17.373 56.903 15.667 54.918 z M 15.029 54.182 c 0.001 0 0.001 0.001 0.002 0.002 L 15.029 54.182 z M 16.306 54.18 l -0.002 0.003 C 16.304 54.182 16.305 54.181 16.306 54.18 z" style="stroke: none; stroke-width: 1; stroke-dasharray: none; stroke-linecap: butt; stroke-linejoin: miter; stroke-miterlimit: 10; fill: blue; fill-rule: nonzero; opacity: 1;" transform=" matrix(1 0 0 1 0 0) " stroke-linecap="round" />
	<path d="M 30.333 87.998 c -3.266 0 -5.922 -2.657 -5.922 -5.923 c 0 -3.827 2.917 -7.191 4.848 -9.417 l 0.202 -0.233 c 0.434 -0.499 1.31 -0.502 1.746 0.002 l 0.199 0.229 c 1.933 2.229 4.85 5.593 4.85 9.42 C 36.256 85.341 33.599 87.998 30.333 87.998 z M 30.333 74.474 c -1.707 1.986 -3.922 4.771 -3.922 7.602 c 0 2.163 1.76 3.923 3.922 3.923 s 3.922 -1.76 3.922 -3.923 C 34.256 79.243 32.039 76.459 30.333 74.474 z M 29.696 73.737 c 0.001 0 0.001 0.001 0.002 0.002 L 29.696 73.737 z M 30.972 73.735 l -0.002 0.003 C 30.971 73.737 30.972 73.736 30.972 73.735 z" style="stroke: none; stroke-width: 1; stroke-dasharray: none; stroke-linecap: butt; stroke-linejoin: miter; stroke-miterlimit: 10; fill: blue; fill-rule: nonzero; opacity: 1;" transform=" matrix(1 0 0 1 0 0) " stroke-linecap="round" />
	<path d="M 59.667 87.998 c -3.266 0 -5.923 -2.657 -5.923 -5.923 c 0 -3.826 2.916 -7.188 4.845 -9.414 l 0.205 -0.236 c 0.22 -0.252 0.537 -0.395 0.873 -0.395 c 0.001 0 0.003 0 0.005 0 c 0.337 0.001 0.654 0.146 0.871 0.4 l 0.196 0.225 c 1.934 2.231 4.85 5.594 4.85 9.42 C 65.589 85.341 62.933 87.998 59.667 87.998 z M 59.667 74.473 c -1.708 1.988 -3.923 4.772 -3.923 7.603 c 0 2.163 1.76 3.923 3.923 3.923 c 2.162 0 3.922 -1.76 3.922 -3.923 C 63.589 79.243 61.372 76.459 59.667 74.473 z M 59.029 73.737 c 0.002 0.002 0.005 0.005 0.007 0.008 L 59.029 73.737 z" style="stroke: none; stroke-width: 1; stroke-dasharray: none; stroke-linecap: butt; stroke-linejoin: miter; stroke-miterlimit: 10; fill: blue; fill-rule: nonzero; opacity: 1;" transform=" matrix(1 0 0 1 0 0) " stroke-linecap="round" />
</g>
</svg>